<svg width="432" height="68" xmlns="http://www.w3.org/2000/svg"><g fill="#000" fill-rule="nonzero"><path d="M36.469 67.406c3.406 0 6.672-.367 9.797-1.101 3.125-.735 6.039-1.79 8.742-3.164a33.843 33.843 0 007.336-5.016 31.271 31.271 0 005.625-6.703c1.562-2.5 2.765-5.242 3.61-8.227.843-2.984 1.265-6.164 1.265-9.539 0-4.75-.938-9.117-2.813-13.101-1.875-3.985-4.445-7.414-7.71-10.29-3.266-2.874-7.11-5.117-11.532-6.726-4.422-1.61-9.195-2.414-14.32-2.414s-9.907.797-14.344 2.39c-4.438 1.594-8.281 3.829-11.531 6.704-3.25 2.875-5.805 6.32-7.664 10.336C1.07 24.57.14 28.985.14 33.797c0 4.906.93 9.414 2.79 13.523 1.86 4.11 4.414 7.657 7.664 10.64 3.25 2.985 7.094 5.306 11.531 6.962 4.438 1.656 9.219 2.484 14.344 2.484zm0-5.344c-3.125 0-5.875-.71-8.25-2.132-2.375-1.422-4.36-3.383-5.953-5.883-1.594-2.5-2.797-5.477-3.61-8.93-.812-3.453-1.218-7.226-1.218-11.32 0-4.031.406-7.719 1.218-11.063.813-3.343 2.016-6.218 3.61-8.625 1.593-2.406 3.578-4.28 5.953-5.625 2.375-1.343 5.125-2.015 8.25-2.015 3.093 0 5.828.672 8.203 2.015 2.375 1.344 4.36 3.22 5.953 5.625 1.594 2.407 2.805 5.282 3.633 8.625.828 3.344 1.242 7.032 1.242 11.063 0 4.094-.414 7.867-1.242 11.32-.828 3.453-2.04 6.43-3.633 8.93-1.594 2.5-3.578 4.46-5.953 5.883-2.375 1.422-5.11 2.133-8.203 2.133zM103.476 66V38.766L133.382 66h18.89L111.96 29.344l31.828-26.907h-12.094l-28.218 23.907V2.437H87.819V66h15.657zm60.303 0l8.344-17.344h24.703L204.795 66h15.938L190.92 1.125h-6.75L153.186 66h10.593zm30.422-23.25h-19.125l9.703-20.531 9.422 20.531zM259.193 66V38.531l24.843-36.093H273.49l-19.64 28.64-20.906-28.64H216.63l26.953 37.03V66h15.61zM301.164 66.977a7.886 7.886 0 003.604-.862c1.136-.574 1.74-.978 1.81-1.213V21.766c1.195-.211 1.91-.668 2.145-1.371l-3.375-1.301a100.337 100.337 0 003.252-6.961 115.425 115.425 0 002.865-7.524c.82.047 1.459-.07 1.916-.351.457-.281.756-.645.896-1.09L304.54.215a114.908 114.908 0 01-3.603 13.693c-1.489 4.512-3.141 8.748-4.957 12.71-1.817 3.96-3.686 7.429-5.608 10.405l1.02.633c3.093-2.812 5.941-6.047 8.543-9.703v39.024h1.23zm11.883-.282c1.664 0 2.982-.334 3.955-1.002.973-.668 1.459-1.13 1.459-1.388v-25.98h12.305v9.21c-2.227.188-4.23.322-6.012.404-1.781.082-3.234.135-4.36.159l3.446 8.086c.89-.164 1.547-.692 1.969-1.582 3.656-1.313 6.86-2.479 9.615-3.498a657.78 657.78 0 007.154-2.69c.235.938.434 1.863.598 2.777.164.914.246 1.782.246 2.602.844.844 1.658 1.19 2.443 1.037.785-.152 1.389-.662 1.81-1.53.423-.866.522-1.991.3-3.374-.223-1.383-.914-2.895-2.075-4.535-1.16-1.641-2.947-3.305-5.36-4.993l-.915.387a24.13 24.13 0 011.23 2.672c.399 1.008.797 2.05 1.196 3.129l-4.957.457v-8.719h12.691v19.02c0 .468-.1.808-.299 1.02-.199.21-.58.316-1.142.316-.352 0-.932-.018-1.74-.053a109.81 109.81 0 01-2.532-.14c-.879-.06-1.635-.112-2.267-.159l-.95-.07v1.09c1.5.257 2.655.568 3.463.931.809.364 1.424.815 1.846 1.354.469.515.797 1.183.984 2.004.188.82.34 1.77.457 2.847 2.602-.257 4.524-.738 5.766-1.441 1.242-.703 2.057-1.629 2.443-2.777.387-1.149.58-2.508.58-4.078V39.483c1.407-.28 2.368-.761 2.883-1.441l-7.207-5.344-3.023 3.516h-11.953v-7.172h9.21v2.355h1.231c1.617 0 2.947-.222 3.99-.668 1.043-.445 1.565-.773 1.565-.984V7.352c.75-.094 1.33-.252 1.74-.475.41-.223.744-.498 1.002-.826l-6.504-5.028-3.305 3.832h-22.816l-7.277-2.953v30.516h1.16c1.64 0 2.935-.223 3.885-.668.949-.445 1.423-.797 1.423-1.055v-1.652h8.368v7.172h-11.18l-7.7-3.656v3.656h-3.445l.633 2.11h2.813v28.37h1.16zm17.719-50.976h-8.368v-8.79h8.368v8.79zm15.539 0h-9.211v-8.79h9.21v8.79zm-15.54 11.215h-8.367v-9.141h8.368v9.14zm15.54 0h-9.211v-9.141h9.21v9.14zm34.645 39.902c1.641 0 2.96-.287 3.956-.861.996-.575 1.494-.99 1.494-1.248V62.02h23.203v4.464h1.16c.727 0 1.53-.117 2.408-.351a15.406 15.406 0 002.268-.774c.633-.28.96-.515.984-.703V48.098c1.29-.282 2.18-.703 2.672-1.266l-1.3-.95c1.335.352 2.665.692 3.99 1.02a92.27 92.27 0 004.095.914c.75-3.445 2.649-5.507 5.695-6.187l.07-.844a141.026 141.026 0 01-14.923-2.478c-4.91-1.09-9.463-2.573-13.658-4.448a71.14 71.14 0 006.767-5.22c2.075-1.817 3.873-3.698 5.397-5.643 1.875-.14 3.117-.457 3.726-.95l-7.066-6.75-4.746 4.079h-15.188a33.1 33.1 0 01.914-1.23c.329-.422.645-.844.95-1.266.797.14 1.459.105 1.986-.106.527-.21.873-.515 1.037-.914l-8.332-3.972h32.484a112.345 112.345 0 01-.931 4.517 96.8 96.8 0 01-1.037 4.201l.808.493c1.36-1.008 2.819-2.268 4.377-3.78 1.559-1.511 2.854-2.865 3.885-4.06 1.313-.07 2.227-.352 2.742-.844l-6.68-6.434-3.69 3.832h-20.813c.89-.164 1.61-.591 2.162-1.283.55-.691.832-1.506.843-2.443.012-.938-.34-1.857-1.054-2.76-.715-.902-1.881-1.658-3.498-2.267-1.617-.61-3.785-.938-6.504-.985l-.563.528c1.172.937 2.274 2.185 3.305 3.744 1.031 1.558 1.676 3.111 1.934 4.658.68.469 1.347.738 2.004.809h-23.31c-.21-1.102-.55-2.356-1.019-3.762l-1.09.07c.118 2.18-.38 4.166-1.494 5.96-1.113 1.792-2.314 3.028-3.603 3.708a5.511 5.511 0 00-2.197 2.04c-.528.866-.616 1.816-.264 2.847.469 1.125 1.33 1.758 2.584 1.898 1.254.14 2.385-.129 3.393-.808 1.195-.75 2.19-1.963 2.988-3.639.797-1.676 1.101-3.756.914-6.24h12.586a58.707 58.707 0 01-5.66 9.44c-2.18 2.964-4.483 5.642-6.909 8.032-2.425 2.391-4.834 4.371-7.224 5.942l.738.914c3.164-1.242 6.31-2.813 9.44-4.711 3.128-1.899 6.1-4.16 8.912-6.785a41.192 41.192 0 007.207 8.789c-4.172 3.094-8.842 5.924-14.01 8.49a107.942 107.942 0 01-16.014 6.416l.492.914a95.531 95.531 0 007.559-1.793c2.508-.703 4.98-1.476 7.418-2.32v21.62h1.23zm16.56-35.719c-3.563-2.133-6.634-4.676-9.212-7.629a75.897 75.897 0 001.934-2.004h16.488c-1.148 1.641-2.496 3.258-4.043 4.852a69.198 69.198 0 01-5.168 4.781zm11.355 13.957h-21.516l-3.516-1.37c5.11-1.97 9.95-4.267 14.52-6.892a45.113 45.113 0 005.765 3.622 59.62 59.62 0 006.434 2.918l-1.687 1.722zm.738 14.836H386.4V47.184h23.203V59.91z"/></g></svg>